<svg xmlns="http://www.w3.org/2000/svg" xmlns:xlink="http://www.w3.org/1999/xlink" width="500" zoomAndPan="magnify" viewBox="0 0 375 374.999991" height="500" preserveAspectRatio="xMidYMid meet" version="1.0"><defs><clipPath id="id1"><path d="M 14 23 L 359 23 L 359 367.910156 L 14 367.910156 Z M 14 23 " clip-rule="nonzero"/></clipPath></defs><path fill="rgb(44.709778%, 53.729248%, 85.488892%)" d="M 341.433594 195.632812 C 341.433594 281.414062 271.910156 350.949219 186.144531 350.949219 C 100.378906 350.949219 30.847656 281.414062 30.847656 195.632812 C 30.847656 109.847656 100.371094 40.304688 186.144531 40.304688 C 271.914062 40.304688 341.433594 109.84375 341.433594 195.632812 Z M 341.433594 195.632812 " fill-opacity="1" fill-rule="nonzero"/><g clip-path="url(#id1)"><path fill="rgb(100%, 100%, 100%)" d="M 186.144531 367.785156 C 181.917969 367.785156 177.695312 367.632812 173.480469 367.320312 C 169.265625 367.007812 165.066406 366.542969 160.886719 365.921875 C 156.707031 365.304688 152.554688 364.53125 148.429688 363.601562 C 144.304688 362.675781 140.222656 361.601562 136.175781 360.375 C 132.132812 359.144531 128.140625 357.773438 124.195312 356.25 C 120.253906 354.730469 116.371094 353.066406 112.550781 351.257812 C 108.730469 349.449219 104.980469 347.503906 101.300781 345.421875 C 97.625 343.335938 94.027344 341.121094 90.515625 338.773438 C 87 336.425781 83.578125 333.949219 80.246094 331.347656 C 76.914062 328.746094 73.679688 326.027344 70.550781 323.1875 C 67.417969 320.351562 64.394531 317.398438 61.480469 314.339844 C 58.566406 311.277344 55.769531 308.113281 53.085938 304.84375 C 50.40625 301.578125 47.847656 298.214844 45.414062 294.757812 C 42.980469 291.300781 40.675781 287.761719 38.503906 284.136719 C 36.332031 280.507812 34.292969 276.808594 32.394531 273.03125 C 30.492188 269.257812 28.734375 265.414062 27.117188 261.511719 C 25.5 257.605469 24.027344 253.644531 22.703125 249.628906 C 21.375 245.617188 20.199219 241.558594 19.171875 237.457031 C 18.144531 233.359375 17.269531 229.226562 16.546875 225.058594 C 15.824219 220.894531 15.257812 216.707031 14.84375 212.5 C 14.429688 208.292969 14.167969 204.078125 14.066406 199.851562 C 13.960938 195.625 14.011719 191.402344 14.222656 187.179688 C 14.429688 182.957031 14.789062 178.75 15.308594 174.550781 C 15.824219 170.355469 16.496094 166.1875 17.320312 162.039062 C 18.144531 157.894531 19.121094 153.785156 20.246094 149.710938 C 21.375 145.636719 22.652344 141.609375 24.074219 137.628906 C 25.5 133.648438 27.066406 129.726562 28.777344 125.859375 C 30.492188 121.996094 32.34375 118.199219 34.335938 114.46875 C 36.328125 110.742188 38.457031 107.09375 40.714844 103.519531 C 42.976562 99.949219 45.367188 96.464844 47.886719 93.070312 C 50.402344 89.675781 53.042969 86.375 55.800781 83.175781 C 58.5625 79.972656 61.4375 76.878906 64.425781 73.890625 C 66.417969 71.898438 68.457031 69.957031 70.546875 68.066406 C 72.632812 66.175781 74.765625 64.339844 76.945312 62.554688 C 79.121094 60.765625 81.339844 59.035156 83.605469 57.359375 C 85.867188 55.683594 88.167969 54.0625 90.511719 52.496094 C 92.855469 50.933594 95.234375 49.429688 97.648438 47.980469 C 100.066406 46.535156 102.515625 45.148438 105 43.820312 C 107.484375 42.492188 110 41.226562 112.546875 40.023438 C 115.089844 38.820312 117.664062 37.679688 120.269531 36.605469 C 122.871094 35.527344 125.496094 34.515625 128.148438 33.566406 C 130.800781 32.621094 133.472656 31.738281 136.167969 30.921875 C 138.863281 30.101562 141.578125 29.351562 144.308594 28.667969 C 147.042969 27.984375 149.789062 27.371094 152.550781 26.820312 C 155.3125 26.273438 158.085938 25.792969 160.875 25.378906 C 163.660156 24.96875 166.453125 24.625 169.257812 24.347656 C 172.058594 24.074219 174.867188 23.867188 177.679688 23.730469 C 180.492188 23.589844 183.304688 23.523438 186.121094 23.523438 C 188.9375 23.523438 191.753906 23.59375 194.566406 23.734375 C 197.378906 23.871094 200.1875 24.078125 202.988281 24.355469 C 205.792969 24.632812 208.585938 24.976562 211.371094 25.390625 C 214.15625 25.804688 216.929688 26.289062 219.691406 26.835938 C 222.453125 27.386719 225.199219 28.003906 227.933594 28.691406 C 230.664062 29.375 233.378906 30.125 236.070312 30.945312 C 238.765625 31.761719 241.441406 32.644531 244.089844 33.59375 C 246.742188 34.542969 249.371094 35.558594 251.972656 36.636719 C 254.574219 37.714844 257.144531 38.855469 259.691406 40.0625 C 262.238281 41.265625 264.753906 42.53125 267.234375 43.859375 C 269.71875 45.1875 272.167969 46.574219 274.585938 48.023438 C 277 49.472656 279.378906 50.980469 281.71875 52.542969 C 284.0625 54.109375 286.363281 55.730469 288.625 57.410156 C 290.886719 59.085938 293.105469 60.820312 295.28125 62.605469 C 297.460938 64.394531 299.589844 66.230469 301.675781 68.125 C 303.765625 70.015625 305.804688 71.957031 307.792969 73.949219 C 309.785156 75.941406 311.726562 77.980469 313.617188 80.066406 C 315.507812 82.152344 317.347656 84.285156 319.136719 86.464844 C 320.921875 88.640625 322.652344 90.859375 324.332031 93.121094 C 326.007812 95.386719 327.628906 97.6875 329.195312 100.027344 C 330.761719 102.371094 332.265625 104.75 333.714844 107.164062 C 335.164062 109.582031 336.550781 112.03125 337.878906 114.515625 C 339.207031 117 340.472656 119.515625 341.675781 122.0625 C 342.878906 124.605469 344.023438 127.179688 345.097656 129.785156 C 346.175781 132.386719 347.191406 135.011719 348.140625 137.664062 C 349.089844 140.316406 349.972656 142.988281 350.789062 145.683594 C 351.609375 148.378906 352.359375 151.09375 353.042969 153.828125 C 353.730469 156.558594 354.347656 159.304688 354.898438 162.070312 C 355.445312 164.832031 355.929688 167.605469 356.34375 170.390625 C 356.757812 173.175781 357.101562 175.972656 357.378906 178.773438 C 357.65625 181.578125 357.863281 184.386719 358 187.199219 C 358.140625 190.011719 358.210938 192.828125 358.210938 195.644531 C 358.210938 198.460938 358.140625 201.277344 358.003906 204.089844 C 357.867188 206.902344 357.660156 209.710938 357.386719 212.515625 C 357.109375 215.316406 356.765625 218.113281 356.355469 220.898438 C 355.941406 223.683594 355.460938 226.460938 354.914062 229.222656 C 354.363281 231.984375 353.75 234.734375 353.066406 237.464844 C 352.382812 240.199219 351.632812 242.914062 350.816406 245.609375 C 350 248.304688 349.117188 250.976562 348.167969 253.628906 C 347.222656 256.28125 346.207031 258.910156 345.132812 261.511719 C 344.054688 264.113281 342.914062 266.691406 341.710938 269.238281 C 340.507812 271.785156 339.242188 274.300781 337.917969 276.785156 C 336.589844 279.269531 335.203125 281.71875 333.757812 284.136719 C 332.3125 286.550781 330.804688 288.933594 329.242188 291.273438 C 327.679688 293.617188 326.058594 295.917969 324.382812 298.183594 C 322.707031 300.445312 320.972656 302.667969 319.1875 304.84375 C 317.402344 307.023438 315.566406 309.15625 313.675781 311.246094 C 311.785156 313.332031 309.84375 315.371094 307.855469 317.363281 C 303.878906 321.363281 299.710938 325.15625 295.359375 328.746094 C 291.007812 332.332031 286.492188 335.695312 281.804688 338.835938 C 277.121094 341.976562 272.292969 344.875 267.320312 347.539062 C 262.347656 350.199219 257.257812 352.609375 252.046875 354.769531 C 246.839844 356.929688 241.535156 358.824219 236.136719 360.457031 C 230.738281 362.089844 225.273438 363.453125 219.742188 364.546875 C 214.207031 365.640625 208.636719 366.457031 203.023438 366.996094 C 197.410156 367.539062 191.78125 367.800781 186.144531 367.785156 Z M 186.144531 367.785156 " fill-opacity="1" fill-rule="nonzero"/></g><path fill="rgb(44.709778%, 53.729248%, 85.488892%)" d="M 341.433594 195.632812 C 341.433594 281.414062 271.910156 350.949219 186.144531 350.949219 C 100.378906 350.949219 30.847656 281.414062 30.847656 195.632812 C 30.847656 109.847656 100.371094 40.304688 186.144531 40.304688 C 271.914062 40.304688 341.433594 109.84375 341.433594 195.632812 Z M 341.433594 195.632812 " fill-opacity="1" fill-rule="nonzero"/><path fill="rgb(17.248535%, 18.429565%, 19.999695%)" d="M 138.464844 88.417969 C 131.964844 92.234375 125.894531 96.644531 120.257812 101.65625 C 114.625 106.664062 109.527344 112.175781 104.972656 118.183594 C 104.667969 118.585938 104.296875 118.914062 103.863281 119.167969 C 103.425781 119.425781 102.957031 119.585938 102.457031 119.65625 C 101.957031 119.722656 101.464844 119.695312 100.972656 119.566406 C 100.484375 119.4375 100.039062 119.222656 99.636719 118.917969 C 99.234375 118.613281 98.90625 118.242188 98.652344 117.804688 C 98.394531 117.371094 98.234375 116.902344 98.164062 116.402344 C 98.09375 115.902344 98.125 115.40625 98.25 114.917969 C 98.378906 114.429688 98.59375 113.984375 98.898438 113.578125 C 103.753906 107.167969 109.1875 101.292969 115.199219 95.949219 C 121.207031 90.605469 127.679688 85.898438 134.613281 81.828125 C 135.050781 81.570312 135.519531 81.410156 136.019531 81.339844 C 136.523438 81.273438 137.015625 81.300781 137.507812 81.429688 C 137.996094 81.558594 138.441406 81.773438 138.847656 82.082031 C 139.25 82.386719 139.578125 82.757812 139.832031 83.195312 C 140.089844 83.632812 140.25 84.101562 140.320312 84.601562 C 140.390625 85.105469 140.359375 85.597656 140.230469 86.089844 C 140.101562 86.578125 139.886719 87.023438 139.582031 87.429688 C 139.273438 87.832031 138.902344 88.160156 138.464844 88.417969 Z M 146.257812 109.171875 C 138.0625 114.441406 130.863281 120.839844 124.664062 128.359375 C 124.507812 128.558594 124.332031 128.742188 124.140625 128.90625 C 123.945312 129.070312 123.738281 129.214844 123.515625 129.339844 C 123.292969 129.464844 123.0625 129.5625 122.820312 129.640625 C 122.578125 129.71875 122.332031 129.769531 122.078125 129.796875 C 121.824219 129.824219 121.574219 129.828125 121.320312 129.804688 C 121.066406 129.78125 120.820312 129.734375 120.574219 129.660156 C 120.332031 129.589844 120.097656 129.492188 119.875 129.375 C 119.648438 129.253906 119.441406 129.113281 119.242188 128.953125 C 119.046875 128.789062 118.867188 128.609375 118.707031 128.414062 C 118.546875 128.214844 118.410156 128.003906 118.292969 127.78125 C 118.171875 127.554688 118.078125 127.320312 118.007812 127.078125 C 117.9375 126.832031 117.890625 126.585938 117.867188 126.332031 C 117.847656 126.078125 117.851562 125.824219 117.878906 125.574219 C 117.910156 125.320312 117.964844 125.074219 118.042969 124.832031 C 118.121094 124.589844 118.222656 124.359375 118.347656 124.136719 C 118.472656 123.914062 118.617188 123.710938 118.785156 123.515625 C 125.488281 115.378906 133.273438 108.460938 142.140625 102.761719 C 142.5625 102.503906 143.023438 102.332031 143.511719 102.253906 C 144.003906 102.171875 144.492188 102.1875 144.976562 102.296875 C 145.464844 102.410156 145.910156 102.609375 146.316406 102.894531 C 146.722656 103.179688 147.0625 103.53125 147.332031 103.953125 C 147.601562 104.371094 147.78125 104.824219 147.871094 105.3125 C 147.964844 105.804688 147.960938 106.292969 147.859375 106.78125 C 147.757812 107.269531 147.570312 107.71875 147.292969 108.132812 C 147.015625 108.546875 146.671875 108.890625 146.257812 109.171875 Z M 242.941406 292.28125 C 249.78125 289.109375 256.25 285.308594 262.34375 280.867188 C 268.4375 276.429688 274.042969 271.441406 279.160156 265.90625 C 279.328125 265.714844 279.511719 265.546875 279.714844 265.394531 C 279.917969 265.242188 280.132812 265.113281 280.359375 265.003906 C 280.589844 264.894531 280.824219 264.808594 281.070312 264.746094 C 281.316406 264.6875 281.566406 264.648438 281.816406 264.636719 C 282.070312 264.625 282.320312 264.636719 282.570312 264.675781 C 282.820312 264.710938 283.066406 264.773438 283.300781 264.859375 C 283.539062 264.945312 283.765625 265.054688 283.980469 265.1875 C 284.199219 265.320312 284.398438 265.46875 284.585938 265.640625 C 284.769531 265.8125 284.9375 266 285.085938 266.207031 C 285.234375 266.410156 285.359375 266.628906 285.464844 266.859375 C 285.570312 267.089844 285.652344 267.324219 285.710938 267.570312 C 285.769531 267.816406 285.800781 268.066406 285.808594 268.320312 C 285.816406 268.574219 285.800781 268.824219 285.757812 269.074219 C 285.714844 269.324219 285.652344 269.566406 285.558594 269.800781 C 285.46875 270.039062 285.359375 270.261719 285.222656 270.476562 C 285.085938 270.691406 284.933594 270.886719 284.757812 271.070312 C 279.304688 276.980469 273.328125 282.304688 266.828125 287.039062 C 260.332031 291.777344 253.433594 295.835938 246.136719 299.214844 C 245.910156 299.332031 245.671875 299.421875 245.425781 299.488281 C 245.179688 299.554688 244.929688 299.597656 244.671875 299.613281 C 244.417969 299.628906 244.164062 299.621094 243.910156 299.585938 C 243.660156 299.550781 243.414062 299.492188 243.171875 299.40625 C 242.929688 299.324219 242.699219 299.214844 242.480469 299.085938 C 242.261719 298.953125 242.058594 298.804688 241.867188 298.632812 C 241.679688 298.460938 241.507812 298.269531 241.359375 298.066406 C 241.207031 297.859375 241.078125 297.640625 240.972656 297.410156 C 240.863281 297.175781 240.78125 296.9375 240.722656 296.6875 C 240.664062 296.441406 240.628906 296.1875 240.621094 295.933594 C 240.613281 295.679688 240.628906 295.425781 240.671875 295.171875 C 240.714844 294.921875 240.78125 294.675781 240.875 294.4375 C 240.964844 294.199219 241.082031 293.972656 241.21875 293.757812 C 241.355469 293.542969 241.511719 293.34375 241.691406 293.160156 C 241.867188 292.976562 242.0625 292.8125 242.273438 292.667969 C 242.484375 292.523438 242.707031 292.402344 242.941406 292.300781 Z M 237.167969 270.863281 C 245.839844 266.414062 253.621094 260.746094 260.515625 253.859375 C 260.691406 253.675781 260.882812 253.511719 261.089844 253.367188 C 261.300781 253.222656 261.519531 253.097656 261.753906 252.996094 C 261.984375 252.894531 262.226562 252.820312 262.476562 252.765625 C 262.722656 252.714844 262.972656 252.683594 263.226562 252.683594 C 263.480469 252.679688 263.734375 252.703125 263.984375 252.75 C 264.234375 252.796875 264.476562 252.867188 264.710938 252.964844 C 264.945312 253.0625 265.167969 253.179688 265.378906 253.320312 C 265.589844 253.460938 265.785156 253.621094 265.964844 253.800781 C 266.144531 253.980469 266.304688 254.175781 266.445312 254.386719 C 266.585938 254.597656 266.703125 254.824219 266.800781 255.058594 C 266.894531 255.292969 266.964844 255.535156 267.015625 255.785156 C 267.0625 256.035156 267.082031 256.285156 267.078125 256.539062 C 267.078125 256.792969 267.046875 257.046875 266.996094 257.292969 C 266.941406 257.542969 266.863281 257.78125 266.761719 258.015625 C 266.660156 258.246094 266.539062 258.46875 266.390625 258.675781 C 266.246094 258.882812 266.082031 259.074219 265.898438 259.25 C 258.4375 266.699219 250.023438 272.828125 240.644531 277.644531 C 240.195312 277.875 239.71875 278.011719 239.214844 278.054688 C 238.710938 278.09375 238.21875 278.039062 237.738281 277.882812 C 237.257812 277.726562 236.824219 277.484375 236.441406 277.160156 C 236.054688 276.832031 235.746094 276.441406 235.515625 275.992188 C 235.285156 275.542969 235.148438 275.066406 235.109375 274.5625 C 235.066406 274.058594 235.125 273.566406 235.28125 273.085938 C 235.433594 272.605469 235.675781 272.171875 236.003906 271.785156 C 236.332031 271.402344 236.71875 271.09375 237.167969 270.863281 Z M 237.167969 270.863281 " fill-opacity="1" fill-rule="nonzero"/><path fill="rgb(100%, 100%, 100%)" d="M 136.53125 81.285156 C 136.957031 81.277344 137.371094 81.339844 137.773438 81.472656 C 138.175781 81.601562 138.546875 81.796875 138.886719 82.050781 C 139.226562 82.304688 139.511719 82.609375 139.75 82.957031 C 139.988281 83.308594 140.164062 83.691406 140.273438 84.097656 C 140.386719 84.507812 140.425781 84.921875 140.398438 85.347656 C 140.371094 85.769531 140.273438 86.175781 140.113281 86.566406 C 139.949219 86.957031 139.726562 87.3125 139.441406 87.628906 C 139.160156 87.945312 138.835938 88.207031 138.464844 88.417969 C 131.964844 92.234375 125.894531 96.644531 120.257812 101.65625 C 114.625 106.664062 109.527344 112.175781 104.972656 118.183594 C 104.667969 118.585938 104.296875 118.914062 103.863281 119.167969 C 103.425781 119.425781 102.957031 119.585938 102.457031 119.65625 C 101.957031 119.722656 101.464844 119.695312 100.972656 119.566406 C 100.484375 119.4375 100.039062 119.222656 99.636719 118.917969 C 99.234375 118.613281 98.90625 118.242188 98.652344 117.804688 C 98.394531 117.371094 98.234375 116.902344 98.164062 116.402344 C 98.09375 115.902344 98.125 115.40625 98.25 114.917969 C 98.378906 114.429688 98.59375 113.984375 98.898438 113.578125 C 103.753906 107.167969 109.1875 101.292969 115.199219 95.949219 C 121.207031 90.605469 127.679688 85.898438 134.613281 81.828125 C 135.207031 81.480469 135.847656 81.304688 136.53125 81.300781 M 144.195312 102.128906 C 144.605469 102.128906 145.007812 102.191406 145.398438 102.320312 C 145.789062 102.453125 146.148438 102.640625 146.480469 102.886719 C 146.808594 103.132812 147.089844 103.425781 147.324219 103.761719 C 147.558594 104.101562 147.734375 104.46875 147.851562 104.863281 C 147.96875 105.257812 148.019531 105.660156 148.003906 106.070312 C 147.988281 106.484375 147.910156 106.882812 147.765625 107.265625 C 147.625 107.652344 147.421875 108.007812 147.164062 108.328125 C 146.90625 108.648438 146.605469 108.917969 146.257812 109.140625 C 138.0625 114.414062 130.863281 120.808594 124.664062 128.332031 C 124.507812 128.53125 124.332031 128.714844 124.140625 128.878906 C 123.945312 129.042969 123.738281 129.1875 123.515625 129.3125 C 123.292969 129.433594 123.0625 129.535156 122.820312 129.613281 C 122.578125 129.6875 122.332031 129.742188 122.078125 129.769531 C 121.824219 129.796875 121.574219 129.800781 121.320312 129.777344 C 121.066406 129.753906 120.820312 129.707031 120.574219 129.632812 C 120.332031 129.558594 120.097656 129.464844 119.875 129.34375 C 119.648438 129.226562 119.441406 129.085938 119.242188 128.921875 C 119.046875 128.761719 118.867188 128.582031 118.707031 128.386719 C 118.546875 128.1875 118.410156 127.976562 118.292969 127.75 C 118.171875 127.527344 118.078125 127.292969 118.007812 127.046875 C 117.9375 126.804688 117.890625 126.554688 117.867188 126.300781 C 117.847656 126.050781 117.851562 125.796875 117.878906 125.542969 C 117.910156 125.292969 117.964844 125.042969 118.042969 124.800781 C 118.121094 124.5625 118.222656 124.328125 118.347656 124.109375 C 118.472656 123.886719 118.617188 123.679688 118.785156 123.488281 C 125.488281 115.351562 133.273438 108.433594 142.140625 102.734375 C 142.765625 102.328125 143.449219 102.125 144.195312 102.128906 M 263.242188 252.71875 C 263.621094 252.71875 263.988281 252.773438 264.347656 252.882812 C 264.707031 252.992188 265.046875 253.152344 265.359375 253.359375 C 265.671875 253.570312 265.949219 253.816406 266.1875 254.109375 C 266.425781 254.398438 266.617188 254.71875 266.761719 255.066406 C 266.90625 255.414062 266.996094 255.777344 267.03125 256.152344 C 267.070312 256.527344 267.050781 256.898438 266.976562 257.265625 C 266.902344 257.636719 266.777344 257.988281 266.601562 258.316406 C 266.421875 258.648438 266.199219 258.949219 265.933594 259.214844 C 258.476562 266.664062 250.058594 272.792969 240.683594 277.609375 C 240.230469 277.839844 239.753906 277.976562 239.253906 278.015625 C 238.75 278.054688 238.257812 278 237.777344 277.84375 C 237.292969 277.6875 236.863281 277.449219 236.476562 277.121094 C 236.089844 276.792969 235.785156 276.40625 235.550781 275.957031 C 235.324219 275.507812 235.1875 275.03125 235.148438 274.527344 C 235.105469 274.023438 235.164062 273.53125 235.316406 273.050781 C 235.472656 272.570312 235.714844 272.136719 236.039062 271.75 C 236.367188 271.367188 236.753906 271.058594 237.203125 270.828125 C 245.875 266.378906 253.65625 260.710938 260.550781 253.824219 C 261.296875 253.082031 262.191406 252.710938 263.242188 252.714844 M 281.964844 264.640625 C 282.335938 264.640625 282.699219 264.695312 283.054688 264.800781 C 283.410156 264.90625 283.742188 265.058594 284.050781 265.261719 C 284.359375 265.464844 284.636719 265.707031 284.875 265.992188 C 285.113281 266.273438 285.308594 266.585938 285.457031 266.921875 C 285.605469 267.261719 285.699219 267.617188 285.746094 267.984375 C 285.792969 268.351562 285.785156 268.71875 285.722656 269.082031 C 285.660156 269.449219 285.550781 269.796875 285.386719 270.128906 C 285.222656 270.460938 285.015625 270.761719 284.765625 271.035156 C 279.3125 276.945312 273.335938 282.269531 266.835938 287.003906 C 260.335938 291.738281 253.441406 295.796875 246.144531 299.179688 C 245.914062 299.292969 245.679688 299.382812 245.433594 299.453125 C 245.1875 299.519531 244.933594 299.558594 244.679688 299.578125 C 244.425781 299.59375 244.171875 299.582031 243.917969 299.550781 C 243.667969 299.515625 243.417969 299.453125 243.179688 299.371094 C 242.9375 299.285156 242.707031 299.179688 242.488281 299.046875 C 242.269531 298.917969 242.066406 298.765625 241.875 298.59375 C 241.6875 298.421875 241.515625 298.234375 241.367188 298.027344 C 241.214844 297.824219 241.085938 297.605469 240.976562 297.371094 C 240.871094 297.140625 240.789062 296.902344 240.730469 296.652344 C 240.671875 296.40625 240.636719 296.152344 240.628906 295.898438 C 240.621094 295.640625 240.636719 295.390625 240.679688 295.136719 C 240.722656 294.886719 240.789062 294.640625 240.882812 294.402344 C 240.972656 294.164062 241.089844 293.9375 241.226562 293.722656 C 241.363281 293.507812 241.519531 293.308594 241.699219 293.125 C 241.875 292.941406 242.070312 292.777344 242.28125 292.632812 C 242.488281 292.488281 242.710938 292.367188 242.949219 292.265625 C 249.789062 289.097656 256.253906 285.292969 262.351562 280.855469 C 268.445312 276.417969 274.050781 271.429688 279.167969 265.890625 C 279.921875 265.070312 280.851562 264.660156 281.964844 264.664062 M 136.53125 77.679688 C 135.191406 77.679688 133.941406 78.019531 132.789062 78.703125 C 125.636719 82.882812 118.964844 87.722656 112.773438 93.21875 C 106.582031 98.71875 100.988281 104.773438 95.992188 111.378906 C 95.574219 111.929688 95.242188 112.523438 94.988281 113.167969 C 94.738281 113.8125 94.582031 114.476562 94.515625 115.164062 C 94.453125 115.851562 94.480469 116.535156 94.609375 117.214844 C 94.734375 117.890625 94.949219 118.539062 95.257812 119.160156 C 95.566406 119.777344 95.949219 120.339844 96.414062 120.851562 C 96.878906 121.363281 97.40625 121.796875 97.992188 122.160156 C 98.582031 122.523438 99.207031 122.800781 99.871094 122.988281 C 100.535156 123.179688 101.210938 123.273438 101.902344 123.273438 C 103.0625 123.269531 104.164062 123.011719 105.203125 122.496094 C 106.242188 121.976562 107.113281 121.257812 107.816406 120.335938 C 112.222656 114.5 117.160156 109.152344 122.625 104.296875 C 128.089844 99.4375 133.976562 95.164062 140.285156 91.46875 C 140.988281 91.058594 141.605469 90.542969 142.140625 89.925781 C 142.671875 89.3125 143.09375 88.625 143.402344 87.871094 C 143.710938 87.117188 143.890625 86.332031 143.9375 85.519531 C 143.988281 84.707031 143.90625 83.90625 143.691406 83.121094 C 143.480469 82.332031 143.144531 81.601562 142.691406 80.925781 C 142.234375 80.25 141.683594 79.664062 141.035156 79.171875 C 140.386719 78.675781 139.679688 78.296875 138.90625 78.039062 C 138.132812 77.777344 137.339844 77.648438 136.527344 77.648438 Z M 144.195312 98.519531 C 142.746094 98.519531 141.410156 98.914062 140.191406 99.695312 C 131.003906 105.597656 122.9375 112.761719 116 121.191406 C 115.683594 121.570312 115.410156 121.972656 115.175781 122.402344 C 114.941406 122.832031 114.75 123.28125 114.601562 123.746094 C 114.457031 124.214844 114.359375 124.691406 114.308594 125.179688 C 114.253906 125.667969 114.253906 126.152344 114.296875 126.640625 C 114.34375 127.128906 114.433594 127.609375 114.574219 128.078125 C 114.714844 128.546875 114.898438 128.996094 115.128906 129.429688 C 115.355469 129.863281 115.625 130.269531 115.9375 130.648438 C 116.246094 131.027344 116.589844 131.375 116.96875 131.6875 C 117.347656 131.996094 117.75 132.269531 118.183594 132.5 C 118.613281 132.730469 119.066406 132.917969 119.53125 133.058594 C 120 133.199219 120.480469 133.296875 120.96875 133.34375 C 121.453125 133.390625 121.941406 133.390625 122.429688 133.339844 C 122.917969 133.289062 123.394531 133.195312 123.863281 133.050781 C 124.332031 132.90625 124.78125 132.71875 125.210938 132.484375 C 125.640625 132.25 126.046875 131.980469 126.421875 131.664062 C 126.796875 131.351562 127.140625 131.007812 127.449219 130.625 C 133.40625 123.390625 140.328125 117.242188 148.214844 112.179688 C 148.890625 111.746094 149.476562 111.21875 149.980469 110.59375 C 150.484375 109.96875 150.875 109.28125 151.15625 108.53125 C 151.4375 107.777344 151.589844 107 151.617188 106.199219 C 151.648438 105.398438 151.546875 104.613281 151.320312 103.84375 C 151.09375 103.074219 150.753906 102.359375 150.296875 101.703125 C 149.835938 101.042969 149.289062 100.472656 148.644531 99.996094 C 148.003906 99.515625 147.300781 99.148438 146.539062 98.894531 C 145.777344 98.644531 144.996094 98.519531 144.195312 98.519531 Z M 263.242188 249.113281 C 262.261719 249.109375 261.316406 249.292969 260.40625 249.667969 C 259.5 250.046875 258.699219 250.582031 258.003906 251.277344 C 251.375 257.898438 243.894531 263.347656 235.558594 267.621094 C 235.125 267.84375 234.71875 268.105469 234.335938 268.410156 C 233.953125 268.710938 233.605469 269.046875 233.289062 269.421875 C 232.976562 269.792969 232.699219 270.191406 232.460938 270.617188 C 232.226562 271.039062 232.03125 271.484375 231.882812 271.949219 C 231.734375 272.414062 231.628906 272.886719 231.574219 273.371094 C 231.519531 273.855469 231.507812 274.339844 231.550781 274.824219 C 231.589844 275.3125 231.675781 275.789062 231.808594 276.257812 C 231.941406 276.726562 232.121094 277.175781 232.339844 277.609375 C 232.5625 278.042969 232.824219 278.449219 233.128906 278.832031 C 233.429688 279.214844 233.769531 279.5625 234.140625 279.878906 C 234.511719 280.195312 234.910156 280.46875 235.335938 280.707031 C 235.757812 280.945312 236.203125 281.136719 236.667969 281.289062 C 237.132812 281.4375 237.605469 281.539062 238.089844 281.597656 C 238.574219 281.652344 239.058594 281.660156 239.542969 281.621094 C 240.027344 281.582031 240.503906 281.496094 240.972656 281.363281 C 241.441406 281.226562 241.894531 281.050781 242.328125 280.828125 C 252.042969 275.84375 260.765625 269.496094 268.488281 261.777344 C 269.007812 261.257812 269.441406 260.675781 269.785156 260.027344 C 270.132812 259.382812 270.375 258.699219 270.519531 257.980469 C 270.664062 257.261719 270.699219 256.535156 270.625 255.804688 C 270.554688 255.078125 270.378906 254.371094 270.097656 253.695312 C 269.816406 253.015625 269.445312 252.394531 268.980469 251.828125 C 268.515625 251.261719 267.980469 250.773438 267.371094 250.363281 C 266.761719 249.957031 266.105469 249.644531 265.402344 249.433594 C 264.703125 249.21875 263.984375 249.113281 263.25 249.113281 Z M 281.960938 261.039062 C 280.925781 261.039062 279.933594 261.25 278.984375 261.664062 C 278.039062 262.078125 277.214844 262.667969 276.511719 263.429688 C 271.5625 268.800781 266.136719 273.636719 260.230469 277.9375 C 254.324219 282.234375 248.058594 285.914062 241.425781 288.976562 C 240.976562 289.175781 240.554688 289.421875 240.15625 289.707031 C 239.757812 289.992188 239.390625 290.3125 239.058594 290.671875 C 238.722656 291.027344 238.425781 291.414062 238.167969 291.832031 C 237.910156 292.25 237.695312 292.6875 237.523438 293.144531 C 237.351562 293.605469 237.226562 294.078125 237.148438 294.558594 C 237.074219 295.042969 237.042969 295.53125 237.0625 296.019531 C 237.078125 296.511719 237.148438 296.992188 237.261719 297.46875 C 237.375 297.945312 237.535156 298.40625 237.742188 298.851562 C 237.945312 299.296875 238.195312 299.71875 238.484375 300.113281 C 238.773438 300.507812 239.097656 300.875 239.457031 301.203125 C 239.820312 301.535156 240.210938 301.828125 240.628906 302.082031 C 241.046875 302.335938 241.488281 302.546875 241.949219 302.714844 C 242.410156 302.882812 242.882812 303 243.367188 303.074219 C 243.851562 303.148438 244.335938 303.171875 244.828125 303.148438 C 245.316406 303.125 245.800781 303.054688 246.273438 302.933594 C 246.75 302.816406 247.210938 302.652344 247.652344 302.441406 C 255.167969 298.972656 262.269531 294.804688 268.960938 289.929688 C 275.652344 285.058594 281.800781 279.578125 287.40625 273.488281 C 287.898438 272.960938 288.300781 272.371094 288.621094 271.722656 C 288.9375 271.078125 289.15625 270.398438 289.277344 269.6875 C 289.398438 268.976562 289.414062 268.261719 289.324219 267.546875 C 289.238281 266.828125 289.046875 266.140625 288.757812 265.480469 C 288.46875 264.820312 288.09375 264.214844 287.625 263.664062 C 287.160156 263.113281 286.625 262.640625 286.023438 262.246094 C 285.417969 261.851562 284.769531 261.550781 284.078125 261.347656 C 283.386719 261.140625 282.679688 261.039062 281.960938 261.039062 Z M 281.960938 261.039062 " fill-opacity="1" fill-rule="nonzero"/><path fill="rgb(17.248535%, 18.429565%, 19.999695%)" d="M 112.859375 327.769531 C 111.699219 328.847656 110.601562 329.835938 109.5625 330.78125 C 103.207031 327.167969 97.136719 323.128906 91.351562 318.664062 C 85.5625 314.195312 80.117188 309.347656 75.007812 304.117188 C 69.902344 298.886719 65.1875 293.324219 60.863281 287.429688 C 56.539062 281.535156 52.644531 275.367188 49.1875 268.929688 C 68.796875 249.777344 84.265625 235.734375 88.394531 229.636719 C 87.40625 220.042969 87.960938 199.832031 89.117188 192.714844 L 89.117188 192.519531 C 89.117188 192.476562 89.117188 192.425781 89.117188 192.363281 L 89.117188 192.332031 C 89.117188 192.269531 89.117188 192.203125 89.117188 192.132812 L 89.117188 192.042969 C 89.117188 191.964844 89.117188 191.886719 89.117188 191.800781 L 89.117188 191.683594 C 89.117188 191.589844 89.117188 191.496094 89.152344 191.386719 L 89.152344 191.25 L 89.195312 190.917969 L 89.195312 190.765625 C 89.195312 190.644531 89.230469 190.523438 89.253906 190.390625 L 89.253906 190.203125 L 89.316406 189.800781 C 89.3125 189.734375 89.3125 189.664062 89.316406 189.597656 C 89.316406 189.445312 89.339844 189.285156 89.382812 189.121094 L 89.382812 188.949219 C 89.382812 188.773438 89.433594 188.59375 89.460938 188.414062 C 89.464844 188.351562 89.464844 188.289062 89.460938 188.226562 C 89.460938 188.03125 89.527344 187.828125 89.554688 187.621094 L 89.554688 187.46875 L 89.664062 186.746094 L 89.664062 186.617188 C 89.707031 186.363281 89.742188 186.113281 89.785156 185.84375 L 89.785156 185.75 C 89.828125 185.476562 89.878906 185.1875 89.929688 184.898438 L 89.929688 184.84375 C 90.132812 183.671875 90.363281 182.402344 90.652344 181.0625 C 90.941406 179.523438 91.273438 177.898438 91.640625 176.203125 L 91.640625 176.109375 L 91.878906 175.011719 L 91.878906 174.882812 C 91.957031 174.53125 92.046875 174.160156 92.125 173.808594 L 92.125 173.65625 C 92.210938 173.304688 92.289062 172.933594 92.375 172.589844 L 92.421875 172.410156 C 92.507812 172.0625 92.585938 171.6875 92.671875 171.363281 L 92.722656 171.160156 C 92.808594 170.8125 92.894531 170.4375 92.988281 170.121094 C 92.988281 170.046875 92.988281 169.976562 93.039062 169.902344 C 93.132812 169.558594 93.222656 169.183594 93.316406 168.863281 L 93.371094 168.65625 L 93.652344 167.601562 C 93.652344 167.539062 93.699219 167.464844 93.710938 167.398438 L 94.015625 166.316406 C 94.035156 166.265625 94.050781 166.207031 94.066406 166.152344 C 94.171875 165.777344 94.28125 165.429688 94.398438 165.027344 C 94.394531 164.984375 94.394531 164.945312 94.398438 164.902344 C 94.511719 164.507812 94.636719 164.109375 94.757812 163.710938 L 94.757812 163.660156 C 95.636719 160.792969 96.660156 157.976562 97.832031 155.210938 L 97.875 155.117188 C 98.027344 154.777344 98.171875 154.445312 98.320312 154.113281 L 98.410156 153.933594 L 98.820312 153.039062 C 98.820312 152.960938 98.898438 152.886719 98.933594 152.816406 C 99.066406 152.535156 99.203125 152.265625 99.339844 151.992188 L 99.46875 151.742188 L 99.867188 150.984375 L 100.019531 150.714844 C 100.148438 150.476562 100.277344 150.238281 100.414062 149.992188 L 100.574219 149.71875 L 100.96875 149.054688 L 101.144531 148.78125 C 101.28125 148.574219 101.410156 148.363281 101.546875 148.160156 L 101.726562 147.886719 L 102.140625 147.300781 L 102.328125 147.042969 C 102.464844 146.855469 102.609375 146.675781 102.746094 146.492188 L 102.941406 146.25 L 103.371094 145.722656 L 103.566406 145.5 L 104.023438 145.007812 L 104.210938 144.804688 C 104.367188 144.648438 104.527344 144.488281 104.691406 144.335938 L 104.867188 144.171875 C 105.039062 144.011719 105.210938 143.859375 105.394531 143.714844 L 105.539062 143.59375 C 105.738281 143.425781 105.949219 143.269531 106.15625 143.125 L 106.222656 143.074219 C 106.679688 142.75 107.164062 142.464844 107.664062 142.214844 L 107.765625 142.171875 C 107.976562 142.070312 108.183594 141.984375 108.394531 141.898438 L 108.617188 141.824219 C 108.792969 141.757812 108.964844 141.699219 109.136719 141.652344 L 109.425781 141.578125 C 109.578125 141.542969 109.734375 141.5 109.894531 141.472656 L 110.21875 141.429688 L 110.675781 141.371094 L 111.019531 141.371094 C 111.171875 141.371094 111.324219 141.371094 111.480469 141.371094 L 111.757812 141.371094 C 111.921875 141.371094 112.085938 141.386719 112.253906 141.414062 L 112.550781 141.449219 C 112.722656 141.449219 112.902344 141.507812 113.085938 141.550781 L 113.335938 141.601562 C 113.605469 141.667969 113.871094 141.738281 114.144531 141.824219 C 126.136719 145.816406 125.558594 168.527344 124.125 185.320312 C 124.101562 185.558594 124.101562 185.800781 124.125 186.039062 C 124.125 186.089844 124.125 186.132812 124.125 186.175781 C 124.148438 186.398438 124.191406 186.613281 124.246094 186.828125 C 124.253906 186.863281 124.265625 186.898438 124.28125 186.933594 C 124.339844 187.125 124.410156 187.308594 124.492188 187.492188 C 124.492188 187.511719 124.492188 187.527344 124.492188 187.546875 C 124.585938 187.730469 124.691406 187.90625 124.816406 188.066406 C 124.835938 188.105469 124.859375 188.136719 124.886719 188.167969 C 125.007812 188.328125 125.140625 188.476562 125.285156 188.617188 L 125.351562 188.675781 C 125.488281 188.796875 125.632812 188.914062 125.78125 189.019531 L 125.855469 189.070312 C 126.023438 189.179688 126.195312 189.273438 126.375 189.359375 L 126.484375 189.410156 C 126.664062 189.496094 126.851562 189.566406 127.046875 189.621094 L 127.082031 189.621094 C 127.265625 189.667969 127.453125 189.707031 127.644531 189.734375 L 127.757812 189.734375 C 127.925781 189.746094 128.089844 189.746094 128.257812 189.734375 L 128.515625 189.734375 C 128.664062 189.726562 128.8125 189.710938 128.957031 189.683594 L 129.152344 189.648438 C 129.300781 189.613281 129.453125 189.570312 129.605469 189.519531 L 129.75 189.46875 C 129.945312 189.390625 130.132812 189.300781 130.3125 189.195312 L 130.4375 189.105469 C 130.578125 189.015625 130.714844 188.917969 130.839844 188.804688 L 131.007812 188.660156 C 131.121094 188.542969 131.230469 188.429688 131.339844 188.300781 L 131.46875 188.132812 C 131.617188 187.933594 131.75 187.726562 131.863281 187.503906 L 166.816406 120.890625 L 166.816406 120.804688 C 166.824219 120.761719 166.839844 120.722656 166.859375 120.679688 L 166.859375 120.609375 C 166.859375 120.558594 166.902344 120.492188 166.921875 120.429688 C 166.945312 120.363281 166.921875 120.347656 166.972656 120.304688 L 167.050781 120.082031 C 167.074219 120.03125 167.09375 119.980469 167.109375 119.929688 C 167.144531 119.84375 167.191406 119.742188 167.226562 119.640625 L 167.289062 119.476562 C 167.339844 119.351562 167.398438 119.222656 167.449219 119.09375 C 167.472656 119.046875 167.492188 119 167.507812 118.949219 L 167.765625 118.355469 L 167.765625 118.300781 L 168.035156 117.714844 L 168.128906 117.511719 C 168.207031 117.355469 168.277344 117.195312 168.359375 117.03125 L 168.488281 116.769531 L 168.726562 116.292969 L 168.871094 116.011719 C 168.957031 115.847656 169.042969 115.679688 169.136719 115.515625 L 169.289062 115.234375 L 169.59375 114.683594 L 169.742188 114.429688 C 169.875 114.207031 170.011719 113.976562 170.15625 113.710938 L 170.226562 113.578125 L 170.761719 112.75 L 170.871094 112.597656 C 171.011719 112.375 171.164062 112.160156 171.324219 111.941406 L 171.519531 111.675781 C 171.648438 111.496094 171.785156 111.308594 171.921875 111.132812 C 172.058594 110.960938 172.074219 110.929688 172.152344 110.835938 L 172.566406 110.332031 L 172.808594 110.035156 L 173.25 109.546875 C 173.335938 109.453125 173.417969 109.359375 173.503906 109.273438 C 173.589844 109.183594 173.835938 108.925781 174.007812 108.757812 L 174.230469 108.542969 C 174.460938 108.3125 174.707031 108.09375 174.953125 107.886719 L 174.988281 107.851562 C 175.25 107.625 175.515625 107.417969 175.789062 107.214844 L 176.027344 107.050781 C 176.222656 106.90625 176.425781 106.769531 176.628906 106.628906 L 176.9375 106.441406 C 177.125 106.328125 177.304688 106.21875 177.5 106.117188 L 177.847656 105.9375 C 178.035156 105.84375 178.222656 105.75 178.417969 105.671875 L 178.777344 105.511719 C 178.980469 105.433594 179.179688 105.363281 179.382812 105.296875 L 179.742188 105.171875 C 179.976562 105.105469 180.214844 105.046875 180.464844 105 L 180.769531 104.925781 C 181.109375 104.863281 181.453125 104.8125 181.800781 104.777344 L 181.914062 104.777344 C 182.234375 104.777344 182.566406 104.777344 182.898438 104.777344 L 183.035156 104.777344 C 183.378906 104.777344 183.753906 104.777344 184.085938 104.847656 L 184.210938 104.847656 C 184.582031 104.894531 184.949219 104.957031 185.3125 105.042969 L 185.414062 105.042969 C 185.804688 105.128906 186.195312 105.246094 186.589844 105.375 L 186.648438 105.375 C 187.066406 105.519531 187.484375 105.683594 187.910156 105.871094 C 201.390625 111.925781 190.59375 139.191406 170.59375 184.28125 C 170.554688 184.375 170.53125 184.472656 170.523438 184.574219 L 170.523438 184.648438 C 170.515625 184.722656 170.515625 184.796875 170.523438 184.871094 C 170.523438 184.871094 170.523438 184.871094 170.523438 184.914062 C 170.554688 184.996094 170.597656 185.070312 170.652344 185.136719 L 170.695312 185.179688 C 170.742188 185.230469 170.796875 185.273438 170.855469 185.3125 L 170.90625 185.347656 C 170.980469 185.390625 171.058594 185.421875 171.144531 185.441406 L 171.578125 185.441406 C 171.664062 185.425781 171.746094 185.398438 171.820312 185.355469 L 171.863281 185.355469 C 171.953125 185.296875 172.03125 185.230469 172.097656 185.144531 L 219.484375 122.507812 L 219.550781 122.433594 L 219.550781 122.398438 L 219.6875 122.238281 L 219.875 122.03125 L 219.9375 121.964844 L 220.113281 121.777344 L 220.191406 121.691406 L 220.472656 121.394531 L 220.796875 121.078125 L 220.898438 120.976562 L 221.179688 120.710938 L 221.289062 120.609375 C 221.425781 120.480469 221.5625 120.347656 221.714844 120.21875 L 222.160156 119.835938 L 222.296875 119.714844 L 222.671875 119.410156 L 222.816406 119.289062 L 223.359375 118.871094 L 223.914062 118.464844 L 224.085938 118.34375 L 224.542969 118.039062 L 224.714844 117.925781 C 224.925781 117.789062 225.132812 117.648438 225.351562 117.519531 L 225.976562 117.160156 L 226.179688 117.050781 L 226.699219 116.785156 L 226.902344 116.683594 L 227.621094 116.351562 L 227.667969 116.351562 L 228.386719 116.078125 L 228.609375 115.996094 L 229.179688 115.808594 L 229.40625 115.738281 C 229.671875 115.664062 229.929688 115.59375 230.199219 115.535156 L 230.257812 115.535156 C 230.5 115.476562 230.753906 115.433594 230.976562 115.390625 L 231.230469 115.390625 C 231.433594 115.390625 231.632812 115.339844 231.84375 115.328125 C 231.921875 115.320312 232.003906 115.320312 232.082031 115.328125 C 232.363281 115.328125 232.644531 115.328125 232.925781 115.328125 L 233.886719 115.328125 L 234.417969 115.390625 C 234.5625 115.390625 234.707031 115.390625 234.851562 115.449219 C 234.996094 115.507812 235.234375 115.527344 235.421875 115.570312 L 235.839844 115.664062 C 236.035156 115.714844 236.238281 115.789062 236.433594 115.851562 C 236.628906 115.917969 236.699219 115.925781 236.828125 115.976562 C 236.960938 116.027344 237.246094 116.148438 237.457031 116.234375 C 237.667969 116.320312 237.710938 116.328125 237.832031 116.386719 C 237.953125 116.445312 238.273438 116.617188 238.496094 116.734375 L 238.84375 116.914062 C 239.09375 117.058594 239.347656 117.222656 239.601562 117.390625 L 239.859375 117.554688 C 240.199219 117.789062 240.539062 118.046875 240.875 118.320312 C 251.257812 126.765625 242.390625 144.367188 199.886719 201.355469 C 199.828125 201.441406 199.78125 201.535156 199.75 201.636719 C 199.75 201.664062 199.75 201.691406 199.75 201.722656 C 199.742188 201.789062 199.742188 201.855469 199.75 201.921875 C 199.75 201.921875 199.75 201.980469 199.75 202.011719 C 199.765625 202.082031 199.789062 202.152344 199.824219 202.21875 C 199.867188 202.296875 199.921875 202.367188 199.988281 202.429688 L 200.046875 202.472656 C 200.09375 202.515625 200.148438 202.550781 200.207031 202.582031 L 200.285156 202.617188 C 200.351562 202.636719 200.417969 202.652344 200.488281 202.660156 L 200.566406 202.660156 C 200.625 202.667969 200.683594 202.667969 200.738281 202.660156 C 200.773438 202.664062 200.808594 202.664062 200.839844 202.660156 C 200.949219 202.621094 201.046875 202.558594 201.128906 202.480469 L 251 155.867188 C 253.453125 153.527344 256.339844 152.007812 259.65625 151.308594 L 260.378906 151.183594 L 260.589844 151.183594 C 260.769531 151.183594 260.941406 151.132812 261.121094 151.121094 C 261.300781 151.105469 261.296875 151.121094 261.390625 151.121094 L 261.886719 151.078125 L 263.605469 151.078125 L 264.136719 151.128906 L 264.355469 151.128906 L 265.074219 151.234375 L 265.148438 151.234375 C 265.371094 151.277344 265.589844 151.328125 265.8125 151.386719 L 266.042969 151.453125 L 266.578125 151.609375 L 266.800781 151.683594 C 267.046875 151.769531 267.285156 151.863281 267.523438 151.964844 L 267.574219 151.964844 C 267.804688 152.066406 268.027344 152.171875 268.257812 152.289062 L 268.480469 152.40625 C 268.660156 152.5 268.84375 152.605469 269.015625 152.707031 L 269.230469 152.84375 C 269.476562 152.996094 269.714844 153.15625 269.953125 153.328125 C 270.183594 153.5 270.414062 153.683594 270.640625 153.871094 L 270.855469 154.058594 C 271.027344 154.207031 271.203125 154.359375 271.367188 154.527344 C 271.441406 154.589844 271.511719 154.65625 271.578125 154.726562 C 271.808594 154.960938 272.039062 155.195312 272.261719 155.449219 C 280.003906 164.21875 273.539062 175.769531 218.285156 224.15625 C 218.207031 224.226562 218.140625 224.308594 218.089844 224.402344 C 218.089844 224.402344 218.089844 224.46875 218.054688 224.496094 C 218.03125 224.554688 218.015625 224.613281 218.003906 224.675781 L 218.003906 224.777344 C 218 224.835938 218 224.894531 218.003906 224.953125 C 218.003906 224.984375 218.003906 225.019531 218.003906 225.050781 C 218.027344 225.109375 218.054688 225.164062 218.085938 225.21875 L 218.128906 225.289062 C 218.179688 225.363281 218.242188 225.425781 218.316406 225.476562 C 218.386719 225.535156 218.464844 225.574219 218.554688 225.601562 L 218.640625 225.601562 C 218.6875 225.605469 218.730469 225.605469 218.777344 225.601562 L 218.914062 225.601562 C 219.015625 225.585938 219.113281 225.550781 219.203125 225.5 L 260.011719 202.074219 L 260.0625 202.039062 L 260.113281 202.039062 L 260.199219 201.988281 L 260.261719 201.945312 L 260.378906 201.878906 L 260.769531 201.714844 L 260.898438 201.640625 L 261.015625 201.585938 L 261.171875 201.503906 L 261.308594 201.441406 L 261.488281 201.359375 L 261.640625 201.289062 L 261.84375 201.203125 L 262.015625 201.136719 L 262.246094 201.042969 L 262.429688 200.976562 L 262.695312 200.890625 L 262.875 200.832031 L 263.207031 200.734375 L 263.351562 200.691406 L 263.863281 200.566406 L 263.929688 200.566406 L 264.40625 200.472656 L 264.59375 200.472656 L 264.976562 200.421875 L 267.363281 200.421875 L 267.746094 200.472656 L 267.984375 200.507812 C 268.148438 200.507812 268.316406 200.566406 268.488281 200.601562 L 268.613281 200.601562 C 268.820312 200.644531 269.039062 200.703125 269.253906 200.769531 L 269.460938 200.832031 L 269.902344 200.984375 L 270.164062 201.085938 L 270.566406 201.253906 L 270.839844 201.390625 L 271.230469 201.578125 L 271.527344 201.742188 L 271.910156 201.96875 L 272.203125 202.15625 C 272.335938 202.234375 272.457031 202.320312 272.585938 202.414062 C 272.71875 202.507812 272.78125 202.550781 272.882812 202.632812 L 273.273438 202.925781 L 273.5625 203.171875 C 273.699219 203.28125 273.828125 203.402344 273.957031 203.519531 L 274.246094 203.785156 C 274.386719 203.914062 274.523438 204.050781 274.65625 204.195312 L 274.925781 204.472656 C 275.074219 204.628906 275.226562 204.808594 275.371094 204.984375 L 275.59375 205.234375 C 275.816406 205.5 276.039062 205.78125 276.265625 206.082031 C 281.019531 212.429688 274.507812 220.230469 258.519531 230.617188 C 238.90625 243.265625 220.609375 257.597656 203.632812 273.613281 C 203.257812 273.972656 202.859375 274.332031 202.457031 274.6875 L 202.097656 274.988281 C 201.800781 275.25 201.496094 275.503906 201.179688 275.761719 C 200.992188 275.921875 200.78125 276.078125 200.582031 276.238281 L 199.824219 276.835938 L 199.144531 277.335938 L 198.421875 277.898438 C 198.183594 278.070312 197.933594 278.246094 197.703125 278.410156 C 197.472656 278.578125 197.191406 278.777344 196.921875 278.960938 L 196.203125 279.433594 L 195.34375 280.003906 L 194.621094 280.476562 L 193.71875 281.039062 L 192.917969 281.515625 L 192.007812 282.054688 L 191.179688 282.523438 L 190.242188 283.058594 L 189.375 283.519531 L 188.421875 284.039062 L 187.523438 284.5 L 186.5625 285 L 185.625 285.460938 L 184.65625 285.9375 L 183.710938 286.378906 L 182.710938 286.847656 L 181.808594 287.25 L 180.738281 287.734375 L 179.816406 288.125 L 178.734375 288.585938 L 177.773438 288.984375 L 176.714844 289.410156 C 176.382812 289.546875 176.042969 289.667969 175.710938 289.796875 L 174.679688 290.203125 L 173.65625 290.578125 L 172.621094 290.953125 L 171.625 291.304688 L 170.566406 291.667969 L 169.570312 292 L 168.503906 292.34375 L 167.5 292.65625 L 166.445312 292.980469 L 165.457031 293.261719 L 164.398438 293.574219 L 163.429688 293.824219 L 162.355469 294.113281 L 161.394531 294.351562 L 160.335938 294.605469 L 159.367188 294.820312 L 158.335938 295.050781 L 157.390625 295.238281 L 156.367188 295.441406 L 155.445312 295.601562 L 154.425781 295.78125 L 153.511719 295.910156 L 152.523438 296.054688 L 151.621094 296.164062 L 150.660156 296.277344 L 149.785156 296.359375 L 148.847656 296.4375 L 147.992188 296.488281 L 147.082031 296.53125 L 145.3125 296.53125 C 143.503906 298.339844 141.75 300.085938 140.054688 301.769531 C 138.917969 302.894531 137.808594 303.992188 136.726562 305.054688 L 135.117188 306.632812 C 133.53125 308.199219 131.996094 309.695312 130.507812 311.136719 C 127.550781 314.023438 124.792969 316.65625 122.238281 319.074219 L 118.558594 322.554688 L 117.320312 323.671875 L 115.089844 325.742188 L 114.027344 326.730469 Z M 112.859375 327.769531 " fill-opacity="1" fill-rule="nonzero"/><path fill="rgb(100%, 100%, 100%)" d="M 277.132812 205.375 C 274.246094 201.355469 269.433594 198.421875 264.367188 199.355469 C 262.667969 198.429688 223.121094 222.445312 221.042969 223.261719 C 268.148438 179.863281 288.140625 165.378906 268.914062 151.214844 C 266.875 150.179688 264.707031 149.695312 262.421875 149.769531 C 251.945312 147.65625 210.40625 194.425781 202.535156 199.65625 C 245.828125 140.410156 258.46875 120.898438 233.800781 114.070312 C 230.867188 113.960938 228.136719 114.644531 225.601562 116.128906 C 220.292969 116.351562 176.46875 178.851562 172.523438 182.808594 C 192.757812 136.230469 208.097656 101.714844 179.238281 104.292969 C 175.695312 105.445312 172.898438 108.140625 170.738281 111.097656 C 168.371094 114.605469 134.664062 181.4375 131.460938 187.101562 C 131.210938 187.605469 130.847656 188.003906 130.371094 188.300781 C 129.894531 188.597656 129.375 188.75 128.8125 188.753906 C 128.6875 188.761719 128.5625 188.761719 128.4375 188.753906 L 128.316406 189.828125 L 128.359375 188.738281 C 128.023438 188.699219 127.707031 188.609375 127.402344 188.460938 C 127.097656 188.316406 126.828125 188.125 126.589844 187.886719 C 126.351562 187.652344 126.15625 187.382812 126.007812 187.082031 C 125.859375 186.777344 125.765625 186.460938 125.726562 186.125 L 124.648438 186.242188 L 125.71875 186.027344 C 127.289062 165.820312 128.171875 136.03125 107.679688 141.285156 C 104.929688 142.648438 102.824219 145.085938 101.144531 147.605469 C 93.171875 160.675781 90.523438 176.882812 88.15625 191.898438 L 89.230469 192.039062 L 88.148438 191.980469 C 86.9375 199.375 86.324219 219.128906 87.289062 229.375 C 82.175781 236.519531 59.714844 256.957031 48.445312 268.179688 L 49.953125 269.730469 C 61.496094 258.183594 84.585938 237.398438 89.519531 229.945312 C 88.613281 219.078125 88.695312 208.21875 89.761719 197.367188 C 90.832031 186.515625 92.867188 175.847656 95.875 165.363281 L 94.84375 165.054688 L 95.914062 165.242188 C 96.871094 161.988281 98.007812 158.800781 99.324219 155.671875 L 98.328125 155.242188 L 99.367188 155.574219 C 102.007812 149.800781 106.511719 140.539062 114.289062 142.886719 C 125.890625 146.675781 124.691406 170.003906 123.546875 186.335938 C 123.835938 190.050781 128.503906 192.175781 131.546875 190.097656 C 137.464844 183.152344 168.019531 118.796875 172.464844 112.367188 C 174.902344 108.976562 178.523438 105.792969 182.925781 105.871094 L 182.925781 104.789062 L 183.035156 105.878906 C 183.355469 105.878906 183.671875 105.902344 183.984375 105.945312 L 184.117188 104.871094 L 184.117188 105.960938 C 205.285156 109.972656 184.484375 142.964844 169.996094 186.0625 C 170.296875 186.378906 170.660156 186.574219 171.089844 186.644531 C 171.519531 186.714844 171.925781 186.648438 172.3125 186.445312 C 173.753906 185.441406 219.578125 123.710938 220.933594 122.578125 L 220.148438 121.855469 L 221.007812 122.519531 C 223.964844 119.476562 227.753906 116.792969 232.101562 116.371094 C 256.460938 119.910156 242.140625 142.472656 199.128906 200.675781 C 199.03125 200.8125 198.953125 200.957031 198.894531 201.113281 C 198.832031 201.269531 198.792969 201.433594 198.777344 201.601562 C 198.757812 201.765625 198.761719 201.933594 198.785156 202.097656 C 198.8125 202.265625 198.855469 202.425781 198.921875 202.578125 C 198.988281 202.734375 199.074219 202.875 199.179688 203.007812 C 199.28125 203.140625 199.402344 203.257812 199.535156 203.359375 C 199.667969 203.460938 199.8125 203.542969 199.96875 203.605469 C 200.125 203.671875 200.285156 203.714844 200.449219 203.734375 C 209.679688 199.988281 251.714844 150.015625 262.789062 152.042969 C 268.230469 151.839844 274.449219 156.878906 274.042969 162.40625 C 273.9375 171.136719 256.910156 188.882812 217.339844 223.90625 C 217.273438 224.039062 217.222656 224.175781 217.1875 224.324219 C 217.152344 224.46875 217.132812 224.617188 217.132812 224.765625 C 217.132812 224.914062 217.148438 225.0625 217.179688 225.207031 C 217.214844 225.355469 217.261719 225.492188 217.328125 225.628906 C 217.394531 225.761719 217.472656 225.886719 217.566406 226.003906 C 217.660156 226.121094 217.769531 226.222656 217.886719 226.316406 C 218.003906 226.40625 218.132812 226.484375 218.265625 226.546875 C 218.402344 226.609375 218.542969 226.652344 218.691406 226.683594 C 219.152344 226.753906 219.585938 226.679688 219.996094 226.460938 C 220.226562 226.308594 260.890625 203.007812 261.085938 202.863281 L 260.546875 201.921875 L 261.160156 202.820312 C 261.917969 202.441406 262.699219 202.121094 263.503906 201.859375 L 263.273438 200.796875 L 263.65625 201.714844 C 265.730469 201.128906 267.773438 201.234375 269.78125 202.03125 C 284.558594 210.367188 273.386719 219.171875 257.949219 229.648438 C 235.90625 243.699219 217.167969 259.539062 199.179688 275.921875 C 196.53125 277.910156 193.765625 279.722656 190.882812 281.355469 C 176.777344 289.0625 161.027344 295.066406 144.800781 295.425781 C 132.992188 307.234375 121.09375 318.867188 108.855469 329.972656 L 110.300781 331.574219 C 122.339844 320.648438 134.058594 309.203125 145.695312 297.585938 C 161.972656 296.972656 177.796875 291.019531 191.929688 283.261719 C 195.84375 281.078125 199.511719 278.546875 202.941406 275.660156 C 220.300781 259.207031 239.027344 244.484375 259.109375 231.488281 C 273.402344 221.121094 282.527344 215.871094 277.132812 205.375 Z M 200.507812 201.511719 Z M 200.507812 201.511719 C 200.53125 201.507812 200.558594 201.507812 200.582031 201.511719 L 200.625 201.671875 L 200.574219 201.734375 Z M 200.632812 201.878906 Z M 200.695312 202.097656 L 200.695312 202.015625 L 200.820312 202.523438 Z M 200.695312 202.097656 " fill-opacity="1" fill-rule="nonzero"/><path fill="rgb(100%, 100%, 100%)" d="M 281.585938 212.277344 C 280.472656 218.558594 274.023438 225.21875 260.660156 233.890625 C 241.253906 246.425781 223.148438 260.617188 206.34375 276.46875 C 200.167969 282.335938 189.882812 288.382812 178.113281 293.066406 C 166.886719 297.527344 155.617188 300.195312 146.886719 300.484375 C 132.046875 315.300781 121.09375 325.679688 113.226562 332.835938 C 111.996094 332.171875 110.761719 331.503906 109.546875 330.808594 C 110.585938 329.863281 111.714844 328.875 112.847656 327.800781 L 114.007812 326.730469 L 115.066406 325.742188 L 117.296875 323.671875 L 118.460938 322.582031 L 122.140625 319.105469 C 124.691406 316.671875 127.449219 314.050781 130.40625 311.167969 C 131.894531 309.722656 133.429688 308.230469 135.019531 306.664062 L 136.625 305.082031 C 137.710938 304.019531 138.816406 302.925781 139.953125 301.800781 C 141.652344 300.117188 143.402344 298.367188 145.210938 296.558594 L 146.980469 296.558594 L 147.890625 296.515625 L 148.746094 296.464844 L 149.6875 296.386719 L 150.558594 296.308594 L 151.519531 296.191406 L 152.421875 296.082031 L 153.410156 295.941406 L 154.324219 295.808594 L 155.34375 295.628906 L 156.265625 295.46875 L 157.289062 295.269531 L 158.234375 295.082031 L 159.265625 294.851562 L 160.234375 294.632812 L 161.296875 294.378906 L 162.253906 294.144531 L 163.328125 293.855469 L 164.296875 293.601562 L 165.355469 293.292969 L 166.34375 293.007812 L 167.398438 292.683594 L 168.402344 292.375 L 169.46875 292.027344 L 170.464844 291.695312 L 171.527344 291.335938 L 172.523438 290.980469 L 173.554688 290.605469 L 174.578125 290.230469 L 175.632812 289.753906 C 175.964844 289.625 176.300781 289.503906 176.632812 289.367188 L 177.695312 288.941406 L 178.65625 288.542969 L 179.738281 288.082031 L 180.660156 287.691406 L 181.726562 287.207031 L 182.628906 286.804688 L 183.632812 286.335938 L 184.578125 285.894531 L 185.542969 285.417969 L 186.484375 284.957031 L 187.441406 284.457031 L 188.34375 283.996094 L 189.296875 283.476562 L 190.164062 283.015625 L 191.101562 282.480469 L 191.929688 282.011719 L 192.839844 281.46875 L 193.640625 280.996094 L 194.542969 280.429688 L 195.261719 279.960938 L 196.121094 279.390625 L 196.84375 278.914062 C 197.109375 278.734375 197.363281 278.546875 197.621094 278.367188 C 197.882812 278.1875 198.121094 278.027344 198.34375 277.855469 L 199.066406 277.292969 L 199.742188 276.792969 L 200.5 276.195312 C 200.703125 276.035156 200.914062 275.878906 201.101562 275.71875 C 201.417969 275.460938 201.722656 275.207031 202.015625 274.945312 L 202.378906 274.644531 C 202.78125 274.28125 203.179688 273.921875 203.554688 273.570312 C 220.554688 257.554688 238.878906 243.222656 258.519531 230.582031 C 274.507812 220.1875 281.019531 212.386719 276.265625 206.042969 C 276.039062 205.75 275.816406 205.46875 275.59375 205.199219 L 275.371094 204.949219 C 275.226562 204.773438 275.074219 204.59375 274.925781 204.433594 L 274.65625 204.160156 C 274.523438 204.015625 274.386719 203.878906 274.246094 203.75 L 273.957031 203.480469 C 273.828125 203.367188 273.699219 203.246094 273.5625 203.136719 L 273.273438 202.890625 L 272.882812 202.59375 C 272.78125 202.515625 272.6875 202.441406 272.585938 202.378906 C 272.484375 202.3125 272.335938 202.199219 272.203125 202.117188 L 271.910156 201.929688 L 271.527344 201.707031 L 271.230469 201.542969 L 270.839844 201.355469 L 270.566406 201.214844 L 270.164062 201.050781 L 269.902344 200.949219 L 269.460938 200.796875 L 269.253906 200.734375 C 269.039062 200.667969 268.820312 200.609375 268.613281 200.566406 L 268.488281 200.566406 C 268.316406 200.53125 268.148438 200.496094 267.984375 200.472656 L 267.746094 200.4375 L 267.363281 200.386719 L 264.976562 200.386719 L 264.59375 200.4375 L 264.40625 200.4375 L 263.929688 200.53125 L 263.863281 200.53125 L 263.351562 200.652344 L 263.207031 200.695312 L 262.875 200.796875 L 262.695312 200.855469 L 262.429688 200.941406 L 262.246094 201.007812 L 262.015625 201.101562 L 261.84375 201.164062 L 261.640625 201.253906 L 261.488281 201.324219 L 261.308594 201.402344 L 261.171875 201.46875 L 260.898438 201.605469 L 260.769531 201.679688 L 260.675781 201.730469 L 260.558594 201.792969 L 260.496094 201.835938 L 260.40625 201.886719 L 260.359375 201.886719 L 260.308594 201.921875 L 219.5 225.347656 C 219.410156 225.398438 219.3125 225.433594 219.210938 225.449219 L 219.074219 225.449219 C 219.027344 225.453125 218.980469 225.453125 218.9375 225.449219 L 218.847656 225.449219 C 218.761719 225.421875 218.683594 225.382812 218.609375 225.328125 C 218.539062 225.273438 218.476562 225.210938 218.421875 225.140625 L 218.378906 225.066406 C 218.351562 225.011719 218.324219 224.957031 218.300781 224.902344 C 218.296875 224.867188 218.296875 224.832031 218.300781 224.800781 C 218.296875 224.742188 218.296875 224.683594 218.300781 224.625 L 218.300781 224.527344 C 218.3125 224.464844 218.328125 224.402344 218.351562 224.34375 C 218.351562 224.34375 218.351562 224.28125 218.386719 224.25 C 218.4375 224.15625 218.503906 224.074219 218.582031 224.007812 C 273.835938 175.621094 280.300781 164.066406 272.558594 155.296875 C 272.335938 155.039062 272.101562 154.800781 271.871094 154.578125 C 271.804688 154.503906 271.738281 154.4375 271.664062 154.375 C 271.496094 154.207031 271.324219 154.058594 271.152344 153.90625 L 270.933594 153.71875 C 270.710938 153.53125 270.480469 153.351562 270.25 153.175781 C 270.003906 153.003906 269.765625 152.84375 269.527344 152.691406 L 269.3125 152.554688 C 269.136719 152.453125 268.957031 152.347656 268.777344 152.253906 L 268.554688 152.136719 C 268.324219 152.023438 268.097656 151.914062 267.867188 151.8125 L 267.816406 151.8125 C 267.574219 151.710938 267.332031 151.617188 267.097656 151.53125 L 266.871094 151.460938 L 266.339844 151.300781 L 266.109375 151.234375 C 265.882812 151.175781 265.667969 151.128906 265.445312 151.082031 L 265.371094 151.082031 L 264.648438 150.976562 L 264.433594 150.976562 L 263.898438 150.925781 L 262.183594 150.925781 L 261.683594 150.96875 C 261.589844 150.96875 261.503906 150.96875 261.417969 150.96875 C 261.332031 150.96875 261.066406 151.011719 260.882812 151.035156 L 260.675781 151.035156 L 259.953125 151.15625 C 256.632812 151.855469 253.75 153.375 251.296875 155.714844 L 201.425781 202.328125 C 201.339844 202.40625 201.246094 202.46875 201.136719 202.507812 C 201.101562 202.511719 201.070312 202.511719 201.035156 202.507812 C 200.976562 202.515625 200.921875 202.515625 200.863281 202.507812 L 200.78125 202.507812 C 200.714844 202.5 200.648438 202.484375 200.582031 202.464844 L 200.5 202.429688 C 200.445312 202.398438 200.390625 202.363281 200.34375 202.320312 L 200.285156 202.277344 C 200.21875 202.214844 200.164062 202.144531 200.117188 202.066406 C 200.085938 202 200.058594 201.933594 200.046875 201.859375 C 200.046875 201.859375 200.046875 201.800781 200.046875 201.773438 C 200.035156 201.703125 200.035156 201.636719 200.046875 201.570312 C 200.042969 201.542969 200.042969 201.511719 200.046875 201.484375 C 200.078125 201.382812 200.125 201.289062 200.183594 201.203125 C 242.6875 144.191406 251.554688 126.613281 241.171875 118.167969 C 240.832031 117.894531 240.496094 117.636719 240.15625 117.40625 L 239.894531 117.238281 C 239.644531 117.074219 239.390625 116.90625 239.136719 116.761719 L 238.792969 116.582031 C 238.566406 116.464844 238.351562 116.34375 238.128906 116.234375 C 237.902344 116.128906 237.882812 116.132812 237.753906 116.085938 C 237.621094 116.035156 237.335938 115.894531 237.125 115.824219 C 236.914062 115.753906 236.867188 115.746094 236.726562 115.703125 C 236.589844 115.660156 236.332031 115.566406 236.136719 115.515625 L 235.71875 115.421875 C 235.53125 115.375 235.335938 115.328125 235.148438 115.296875 C 234.960938 115.269531 234.859375 115.296875 234.714844 115.238281 L 234.179688 115.175781 L 233.222656 115.175781 C 232.941406 115.175781 232.667969 115.175781 232.382812 115.175781 C 232.304688 115.167969 232.226562 115.167969 232.148438 115.175781 C 231.9375 115.175781 231.734375 115.210938 231.535156 115.238281 L 231.28125 115.238281 C 231.027344 115.28125 230.777344 115.328125 230.558594 115.382812 L 230.5 115.382812 C 230.234375 115.441406 229.976562 115.515625 229.707031 115.585938 L 229.484375 115.660156 L 228.914062 115.847656 L 228.691406 115.925781 L 227.96875 116.199219 L 227.925781 116.199219 L 227.203125 116.53125 L 227.003906 116.632812 L 226.484375 116.898438 L 226.28125 117.007812 L 225.652344 117.367188 C 225.4375 117.5 225.226562 117.636719 225.019531 117.773438 L 224.84375 117.886719 L 224.390625 118.191406 L 224.21875 118.3125 L 223.660156 118.71875 L 223.121094 119.136719 L 222.976562 119.257812 L 222.601562 119.5625 L 222.464844 119.683594 L 222.015625 120.066406 C 221.867188 120.199219 221.726562 120.328125 221.589844 120.457031 L 221.484375 120.558594 L 221.203125 120.824219 L 221.101562 120.925781 L 220.777344 121.242188 L 220.496094 121.539062 L 220.414062 121.625 L 220.242188 121.8125 L 220.175781 121.878906 L 219.988281 122.089844 L 219.851562 122.246094 L 219.851562 122.28125 L 219.789062 122.355469 L 172.398438 184.992188 C 172.335938 185.078125 172.257812 185.148438 172.167969 185.203125 L 172.125 185.203125 C 172.046875 185.246094 171.964844 185.273438 171.878906 185.289062 L 171.5625 185.289062 C 171.476562 185.269531 171.398438 185.238281 171.324219 185.195312 L 171.273438 185.160156 C 171.214844 185.121094 171.164062 185.078125 171.113281 185.03125 L 171.070312 184.988281 C 171.015625 184.917969 170.972656 184.84375 170.941406 184.761719 C 170.941406 184.761719 170.941406 184.761719 170.941406 184.71875 C 170.933594 184.644531 170.933594 184.570312 170.941406 184.496094 L 170.941406 184.421875 C 170.949219 184.320312 170.972656 184.222656 171.011719 184.128906 C 191.027344 139.039062 201.820312 111.777344 188.328125 105.722656 C 187.902344 105.535156 187.484375 105.367188 187.066406 105.222656 L 187.007812 105.222656 C 186.613281 105.09375 186.222656 104.976562 185.832031 104.890625 L 185.730469 104.890625 C 185.367188 104.804688 185 104.742188 184.628906 104.695312 L 184.503906 104.695312 C 184.144531 104.652344 183.785156 104.632812 183.453125 104.625 L 182.847656 104.625 C 182.558594 104.625 182.269531 104.625 181.988281 104.625 L 181.871094 104.625 C 181.527344 104.625 181.152344 104.710938 180.839844 104.777344 L 180.539062 104.847656 C 180.304688 104.894531 180.066406 104.953125 179.816406 105.019531 L 179.457031 105.144531 C 179.253906 105.210938 179.050781 105.285156 178.847656 105.359375 L 178.488281 105.519531 C 178.292969 105.597656 178.105469 105.691406 177.917969 105.785156 L 177.570312 105.964844 C 177.378906 106.066406 177.195312 106.175781 177.007812 106.292969 L 176.699219 106.480469 C 176.496094 106.617188 176.296875 106.753906 176.101562 106.898438 L 175.863281 107.0625 C 175.589844 107.265625 175.320312 107.476562 175.0625 107.699219 L 175.023438 107.734375 C 174.78125 107.945312 174.535156 108.160156 174.304688 108.390625 L 174.078125 108.609375 C 173.90625 108.773438 173.742188 108.945312 173.574219 109.121094 C 173.410156 109.292969 173.410156 109.300781 173.324219 109.394531 L 172.882812 109.886719 L 172.636719 110.179688 L 172.226562 110.6875 C 172.144531 110.78125 172.066406 110.882812 171.996094 110.980469 C 171.921875 111.082031 171.722656 111.34375 171.589844 111.523438 L 171.394531 111.789062 C 171.238281 112.007812 171.085938 112.222656 170.941406 112.445312 L 170.832031 112.597656 L 170.300781 113.429688 L 170.226562 113.558594 C 170.082031 113.789062 169.945312 114.019531 169.816406 114.28125 L 169.664062 114.53125 L 169.363281 115.082031 L 169.210938 115.363281 C 169.117188 115.527344 169.03125 115.695312 168.941406 115.859375 L 168.796875 116.140625 L 168.558594 116.617188 L 168.429688 116.878906 C 168.351562 117.042969 168.277344 117.203125 168.199219 117.363281 L 168.105469 117.5625 L 167.839844 118.148438 L 167.839844 118.207031 L 167.578125 118.796875 C 167.5625 118.847656 167.542969 118.894531 167.523438 118.941406 C 167.472656 119.070312 167.414062 119.203125 167.363281 119.324219 L 167.296875 119.488281 C 167.296875 119.589844 167.21875 119.691406 167.183594 119.777344 C 167.167969 119.832031 167.148438 119.882812 167.125 119.929688 L 167.046875 120.152344 C 167.046875 120.199219 167.046875 120.242188 166.996094 120.277344 C 166.945312 120.3125 166.953125 120.40625 166.929688 120.457031 L 166.929688 120.53125 C 166.914062 120.570312 166.898438 120.609375 166.886719 120.652344 L 166.886719 120.738281 L 132.464844 187.417969 C 132.351562 187.640625 132.21875 187.847656 132.066406 188.046875 L 131.9375 188.210938 C 131.828125 188.34375 131.71875 188.457031 131.605469 188.574219 L 131.4375 188.71875 C 131.3125 188.828125 131.179688 188.929688 131.035156 189.019531 L 130.914062 189.105469 C 130.730469 189.214844 130.542969 189.304688 130.351562 189.382812 L 130.207031 189.433594 C 130.054688 189.484375 129.90625 189.527344 129.75 189.5625 L 129.554688 189.597656 C 129.410156 189.625 129.265625 189.640625 129.117188 189.648438 L 128.855469 189.648438 C 128.691406 189.660156 128.523438 189.660156 128.359375 189.648438 L 128.242188 189.648438 C 128.054688 189.621094 127.867188 189.582031 127.679688 189.53125 L 127.644531 189.53125 C 127.449219 189.480469 127.261719 189.410156 127.082031 189.324219 L 126.972656 189.273438 C 126.792969 189.1875 126.621094 189.09375 126.453125 188.984375 L 126.382812 188.933594 C 126.230469 188.828125 126.085938 188.710938 125.949219 188.585938 L 125.882812 188.53125 C 125.738281 188.390625 125.609375 188.242188 125.488281 188.082031 C 125.457031 188.050781 125.433594 188.019531 125.414062 187.980469 C 125.292969 187.816406 125.183594 187.644531 125.089844 187.460938 C 125.09375 187.441406 125.09375 187.421875 125.089844 187.402344 C 125.007812 187.222656 124.9375 187.039062 124.878906 186.847656 C 124.867188 186.8125 124.851562 186.777344 124.84375 186.742188 C 124.789062 186.527344 124.746094 186.308594 124.722656 186.089844 C 124.722656 186.046875 124.722656 186.003906 124.722656 185.953125 C 124.699219 185.714844 124.699219 185.472656 124.722656 185.230469 C 126.164062 168.433594 126.734375 145.730469 114.742188 141.738281 C 114.46875 141.652344 114.203125 141.578125 113.933594 141.515625 L 113.683594 141.464844 C 113.503906 141.421875 113.320312 141.390625 113.148438 141.363281 L 112.851562 141.328125 C 112.691406 141.328125 112.523438 141.3125 112.355469 141.285156 L 111.273438 141.285156 L 110.820312 141.339844 L 110.492188 141.386719 C 110.335938 141.386719 110.175781 141.457031 110.023438 141.492188 L 109.734375 141.566406 C 109.5625 141.617188 109.390625 141.675781 109.21875 141.738281 L 108.992188 141.8125 C 108.785156 141.898438 108.574219 141.984375 108.367188 142.085938 L 108.265625 142.128906 C 107.761719 142.378906 107.28125 142.664062 106.820312 142.988281 L 106.757812 143.039062 C 106.546875 143.183594 106.339844 143.339844 106.136719 143.507812 L 105.992188 143.628906 C 105.8125 143.773438 105.636719 143.925781 105.464844 144.082031 L 105.292969 144.25 C 105.125 144.402344 104.96875 144.558594 104.808594 144.71875 L 104.621094 144.921875 L 104.167969 145.410156 L 103.972656 145.636719 L 103.539062 146.164062 L 103.34375 146.40625 C 103.207031 146.589844 103.0625 146.769531 102.925781 146.957031 L 102.738281 147.214844 L 102.328125 147.800781 L 102.144531 148.074219 C 102.007812 148.277344 101.878906 148.484375 101.742188 148.695312 L 101.570312 148.96875 L 101.171875 149.632812 L 101.011719 149.90625 C 100.875 150.136719 100.746094 150.375 100.617188 150.628906 L 100.464844 150.894531 L 100.066406 151.652344 L 99.9375 151.90625 C 99.800781 152.179688 99.664062 152.449219 99.535156 152.730469 C 99.535156 152.800781 99.453125 152.875 99.417969 152.953125 L 99.007812 153.847656 L 98.921875 154.027344 C 98.769531 154.359375 98.625 154.691406 98.472656 155.03125 L 98.429688 155.125 C 97.257812 157.886719 96.234375 160.707031 95.355469 163.574219 L 95.355469 163.625 C 95.234375 164.023438 95.113281 164.417969 94.996094 164.816406 C 94.992188 164.859375 94.992188 164.898438 94.996094 164.9375 C 94.878906 165.316406 94.773438 165.660156 94.664062 166.066406 C 94.652344 166.121094 94.632812 166.175781 94.613281 166.230469 L 94.3125 167.3125 C 94.3125 167.378906 94.3125 167.449219 94.253906 167.515625 L 93.972656 168.570312 L 93.914062 168.777344 C 93.820312 169.125 93.734375 169.5 93.640625 169.816406 C 93.640625 169.890625 93.601562 169.960938 93.589844 170.035156 C 93.496094 170.378906 93.410156 170.753906 93.320312 171.074219 L 93.273438 171.277344 C 93.183594 171.628906 93.105469 171.996094 93.019531 172.320312 L 92.976562 172.503906 C 92.890625 172.863281 92.808594 173.222656 92.722656 173.570312 L 92.722656 173.722656 C 92.644531 174.082031 92.558594 174.445312 92.476562 174.796875 L 92.476562 174.925781 L 92.238281 176.023438 L 92.238281 176.117188 C 91.871094 177.8125 91.519531 179.4375 91.25 180.972656 C 91 182.316406 90.769531 183.585938 90.53125 184.753906 L 90.53125 184.8125 C 90.480469 185.101562 90.429688 185.390625 90.386719 185.664062 L 90.386719 185.757812 C 90.34375 186.027344 90.304688 186.277344 90.261719 186.53125 L 90.261719 186.660156 L 90.15625 187.382812 L 90.15625 187.535156 C 90.15625 187.742188 90.089844 187.945312 90.0625 188.140625 C 90.0625 188.203125 90.0625 188.265625 90.0625 188.328125 C 90.0625 188.507812 90.011719 188.6875 89.980469 188.863281 L 89.980469 189.035156 C 89.980469 189.199219 89.960938 189.355469 89.917969 189.511719 C 89.914062 189.578125 89.914062 189.644531 89.917969 189.714844 L 89.851562 190.117188 L 89.851562 190.304688 C 89.851562 190.433594 89.851562 190.558594 89.792969 190.679688 L 89.792969 190.832031 L 89.75 191.164062 L 89.75 191.300781 C 89.75 191.410156 89.75 191.503906 89.714844 191.597656 L 89.714844 191.710938 C 89.714844 191.800781 89.714844 191.878906 89.714844 191.957031 L 89.714844 192.042969 C 89.714844 192.117188 89.714844 192.179688 89.714844 192.246094 L 89.714844 192.332031 C 89.714844 192.398438 89.714844 192.449219 89.714844 192.492188 L 89.714844 192.6875 C 88.539062 199.800781 87.984375 220.015625 88.992188 229.605469 C 84.867188 235.726562 69.398438 249.746094 49.785156 268.898438 C 49.136719 267.683594 48.503906 266.453125 47.882812 265.210938 C 52.984375 260.238281 57.800781 255.605469 62.269531 251.320312 C 72.882812 241.128906 81.453125 232.902344 84.910156 228.472656 C 84.066406 217.957031 84.664062 199.167969 85.804688 192.125 C 86.949219 183.273438 88.695312 174.546875 91.035156 165.933594 C 93.199219 158.132812 95.71875 151.863281 98.472656 147.296875 C 102.457031 140.699219 107.132812 137.359375 112.414062 137.359375 C 113.800781 137.363281 115.152344 137.589844 116.46875 138.035156 C 130.898438 142.835938 130.832031 165.992188 129.152344 185.628906 C 129.144531 185.664062 129.144531 185.699219 129.152344 185.738281 C 129.21875 185.78125 129.289062 185.804688 129.367188 185.800781 C 129.394531 185.773438 129.414062 185.742188 129.425781 185.707031 L 163.71875 119.28125 C 164.828125 116.226562 166.273438 113.339844 168.046875 110.621094 C 172.304688 104.175781 177.601562 100.777344 183.367188 100.777344 C 185.730469 100.800781 187.988281 101.3125 190.132812 102.308594 C 201.238281 107.292969 198.9375 121.359375 196.230469 131.511719 C 194.066406 139.6875 190.414062 149.496094 185.21875 161.921875 L 216.28125 120.167969 L 216.324219 120.109375 L 216.367188 120.058594 C 216.664062 119.691406 223.667969 111.207031 233.019531 111.207031 C 234.933594 111.226562 236.789062 111.570312 238.578125 112.242188 C 240.371094 112.914062 241.996094 113.875 243.453125 115.117188 C 252.515625 122.484375 248.421875 134.039062 243.84375 143.261719 C 239.832031 151.359375 233.28125 161.792969 222.621094 176.882812 L 248.359375 152.824219 C 249.839844 151.417969 251.484375 150.242188 253.292969 149.296875 C 255.101562 148.351562 257.007812 147.675781 259.007812 147.265625 C 260.25 147.023438 261.503906 146.898438 262.765625 146.890625 C 263.96875 146.886719 265.160156 147.015625 266.332031 147.269531 C 267.507812 147.527344 268.640625 147.90625 269.734375 148.410156 C 270.824219 148.914062 271.847656 149.53125 272.804688 150.261719 C 273.765625 150.988281 274.628906 151.8125 275.40625 152.730469 C 278.09375 155.765625 279.28125 159.007812 279.050781 162.628906 C 278.480469 171.414062 269.304688 183.226562 243.386719 207.082031 L 258.15625 198.605469 C 260.644531 197.085938 263.347656 196.320312 266.257812 196.300781 C 269.75 196.300781 274.875 197.578125 279.414062 203.632812 C 280.371094 204.855469 281.039062 206.21875 281.417969 207.726562 C 281.796875 209.230469 281.851562 210.75 281.585938 212.277344 Z M 281.585938 212.277344 " fill-opacity="1" fill-rule="nonzero"/></svg>